<?xml version="1.0" standalone="no"?>
<!DOCTYPE svg PUBLIC "-//W3C//DTD SVG 20010904//EN"
 "http://www.w3.org/TR/2001/REC-SVG-20010904/DTD/svg10.dtd">
<svg version="1.0" xmlns="http://www.w3.org/2000/svg"
 width="16.000000pt" height="16.000000pt" viewBox="0 0 16.000000 16.000000"
 preserveAspectRatio="xMidYMid meet">

<g transform="translate(0.000000,16.000000) scale(0.100000,-0.100000)"
fill="#fff" stroke="none">
<path d="M4 147 c-3 -8 -4 -43 -2 -78 l3 -64 75 0 75 0 0 75 0 75 -73 3 c-55
2 -74 -1 -78 -11z m65 -54 c14 -48 14 -63 1 -63 -5 0 -10 7 -10 15 0 8 -4 15
-10 15 -5 0 -10 -7 -10 -15 0 -8 -4 -15 -10 -15 -12 0 -12 1 1 56 6 24 15 44
20 44 4 0 13 -17 18 -37z m66 -13 c0 -39 -3 -45 -22 -48 -21 -3 -23 0 -23 48
0 48 2 51 23 48 19 -3 22 -9 22 -48z"/>
<path d="M100 100 c0 -5 5 -10 10 -10 6 0 10 5 10 10 0 6 -4 10 -10 10 -5 0
-10 -4 -10 -10z"/>
<path d="M100 60 c0 -5 5 -10 10 -10 6 0 10 5 10 10 0 6 -4 10 -10 10 -5 0
-10 -4 -10 -10z"/>
</g>

    <style>
        path { fill: #fff; }

        @media (prefers-color-scheme: dark) {
            path { fill: #000; }
        }
    </style>
</svg>
